G04 #@! TF.GenerationSoftware,KiCad,Pcbnew,7.0.11*
G04 #@! TF.CreationDate,2025-03-05T13:55:34+11:00*
G04 #@! TF.ProjectId,notestmode3,6e6f7465-7374-46d6-9f64-65332e6b6963,rev?*
G04 #@! TF.SameCoordinates,Original*
G04 #@! TF.FileFunction,Legend,Bot*
G04 #@! TF.FilePolarity,Positive*
%FSLAX46Y46*%
G04 Gerber Fmt 4.6, Leading zero omitted, Abs format (unit mm)*
G04 Created by KiCad (PCBNEW 7.0.11) date 2025-03-05 13:55:34*
%MOMM*%
%LPD*%
G01*
G04 APERTURE LIST*
G04 Aperture macros list*
%AMRoundRect*
0 Rectangle with rounded corners*
0 $1 Rounding radius*
0 $2 $3 $4 $5 $6 $7 $8 $9 X,Y pos of 4 corners*
0 Add a 4 corners polygon primitive as box body*
4,1,4,$2,$3,$4,$5,$6,$7,$8,$9,$2,$3,0*
0 Add four circle primitives for the rounded corners*
1,1,$1+$1,$2,$3*
1,1,$1+$1,$4,$5*
1,1,$1+$1,$6,$7*
1,1,$1+$1,$8,$9*
0 Add four rect primitives between the rounded corners*
20,1,$1+$1,$2,$3,$4,$5,0*
20,1,$1+$1,$4,$5,$6,$7,0*
20,1,$1+$1,$6,$7,$8,$9,0*
20,1,$1+$1,$8,$9,$2,$3,0*%
G04 Aperture macros list end*
%ADD10C,0.250000*%
%ADD11C,0.119998*%
%ADD12RoundRect,0.300960X-0.451440X-0.451440X0.451440X-0.451440X0.451440X0.451440X-0.451440X0.451440X0*%
%ADD13RoundRect,0.317500X-0.723900X-0.317500X0.723900X-0.317500X0.723900X0.317500X-0.723900X0.317500X0*%
%ADD14RoundRect,0.314851X0.562549X-0.425049X0.562549X0.425049X-0.562549X0.425049X-0.562549X-0.425049X0*%
G04 APERTURE END LIST*
D10*
X140130285Y-147207141D02*
X138930285Y-147207141D01*
X139958857Y-147207141D02*
X140044571Y-147149998D01*
X140044571Y-147149998D02*
X140130285Y-147035713D01*
X140130285Y-147035713D02*
X140130285Y-146864284D01*
X140130285Y-146864284D02*
X140044571Y-146749998D01*
X140044571Y-146749998D02*
X139873142Y-146692856D01*
X139873142Y-146692856D02*
X138930285Y-146692856D01*
X138930285Y-145949999D02*
X139016000Y-146064284D01*
X139016000Y-146064284D02*
X139101714Y-146121427D01*
X139101714Y-146121427D02*
X139273142Y-146178570D01*
X139273142Y-146178570D02*
X139787428Y-146178570D01*
X139787428Y-146178570D02*
X139958857Y-146121427D01*
X139958857Y-146121427D02*
X140044571Y-146064284D01*
X140044571Y-146064284D02*
X140130285Y-145949999D01*
X140130285Y-145949999D02*
X140130285Y-145778570D01*
X140130285Y-145778570D02*
X140044571Y-145664284D01*
X140044571Y-145664284D02*
X139958857Y-145607142D01*
X139958857Y-145607142D02*
X139787428Y-145549999D01*
X139787428Y-145549999D02*
X139273142Y-145549999D01*
X139273142Y-145549999D02*
X139101714Y-145607142D01*
X139101714Y-145607142D02*
X139016000Y-145664284D01*
X139016000Y-145664284D02*
X138930285Y-145778570D01*
X138930285Y-145778570D02*
X138930285Y-145949999D01*
X140130285Y-145207142D02*
X140130285Y-144749999D01*
X140730285Y-145035713D02*
X139187428Y-145035713D01*
X139187428Y-145035713D02*
X139016000Y-144978570D01*
X139016000Y-144978570D02*
X138930285Y-144864285D01*
X138930285Y-144864285D02*
X138930285Y-144749999D01*
X139016000Y-143892856D02*
X138930285Y-144007142D01*
X138930285Y-144007142D02*
X138930285Y-144235714D01*
X138930285Y-144235714D02*
X139016000Y-144349999D01*
X139016000Y-144349999D02*
X139187428Y-144407142D01*
X139187428Y-144407142D02*
X139873142Y-144407142D01*
X139873142Y-144407142D02*
X140044571Y-144349999D01*
X140044571Y-144349999D02*
X140130285Y-144235714D01*
X140130285Y-144235714D02*
X140130285Y-144007142D01*
X140130285Y-144007142D02*
X140044571Y-143892856D01*
X140044571Y-143892856D02*
X139873142Y-143835714D01*
X139873142Y-143835714D02*
X139701714Y-143835714D01*
X139701714Y-143835714D02*
X139530285Y-144407142D01*
X139016000Y-143378571D02*
X138930285Y-143264285D01*
X138930285Y-143264285D02*
X138930285Y-143035714D01*
X138930285Y-143035714D02*
X139016000Y-142921428D01*
X139016000Y-142921428D02*
X139187428Y-142864285D01*
X139187428Y-142864285D02*
X139273142Y-142864285D01*
X139273142Y-142864285D02*
X139444571Y-142921428D01*
X139444571Y-142921428D02*
X139530285Y-143035714D01*
X139530285Y-143035714D02*
X139530285Y-143207143D01*
X139530285Y-143207143D02*
X139616000Y-143321428D01*
X139616000Y-143321428D02*
X139787428Y-143378571D01*
X139787428Y-143378571D02*
X139873142Y-143378571D01*
X139873142Y-143378571D02*
X140044571Y-143321428D01*
X140044571Y-143321428D02*
X140130285Y-143207143D01*
X140130285Y-143207143D02*
X140130285Y-143035714D01*
X140130285Y-143035714D02*
X140044571Y-142921428D01*
X140130285Y-142521428D02*
X140130285Y-142064285D01*
X140730285Y-142349999D02*
X139187428Y-142349999D01*
X139187428Y-142349999D02*
X139016000Y-142292856D01*
X139016000Y-142292856D02*
X138930285Y-142178571D01*
X138930285Y-142178571D02*
X138930285Y-142064285D01*
X138930285Y-141664285D02*
X140130285Y-141664285D01*
X139958857Y-141664285D02*
X140044571Y-141607142D01*
X140044571Y-141607142D02*
X140130285Y-141492857D01*
X140130285Y-141492857D02*
X140130285Y-141321428D01*
X140130285Y-141321428D02*
X140044571Y-141207142D01*
X140044571Y-141207142D02*
X139873142Y-141150000D01*
X139873142Y-141150000D02*
X138930285Y-141150000D01*
X139873142Y-141150000D02*
X140044571Y-141092857D01*
X140044571Y-141092857D02*
X140130285Y-140978571D01*
X140130285Y-140978571D02*
X140130285Y-140807142D01*
X140130285Y-140807142D02*
X140044571Y-140692857D01*
X140044571Y-140692857D02*
X139873142Y-140635714D01*
X139873142Y-140635714D02*
X138930285Y-140635714D01*
X138930285Y-139892857D02*
X139016000Y-140007142D01*
X139016000Y-140007142D02*
X139101714Y-140064285D01*
X139101714Y-140064285D02*
X139273142Y-140121428D01*
X139273142Y-140121428D02*
X139787428Y-140121428D01*
X139787428Y-140121428D02*
X139958857Y-140064285D01*
X139958857Y-140064285D02*
X140044571Y-140007142D01*
X140044571Y-140007142D02*
X140130285Y-139892857D01*
X140130285Y-139892857D02*
X140130285Y-139721428D01*
X140130285Y-139721428D02*
X140044571Y-139607142D01*
X140044571Y-139607142D02*
X139958857Y-139550000D01*
X139958857Y-139550000D02*
X139787428Y-139492857D01*
X139787428Y-139492857D02*
X139273142Y-139492857D01*
X139273142Y-139492857D02*
X139101714Y-139550000D01*
X139101714Y-139550000D02*
X139016000Y-139607142D01*
X139016000Y-139607142D02*
X138930285Y-139721428D01*
X138930285Y-139721428D02*
X138930285Y-139892857D01*
X138930285Y-138464286D02*
X140730285Y-138464286D01*
X139016000Y-138464286D02*
X138930285Y-138578571D01*
X138930285Y-138578571D02*
X138930285Y-138807143D01*
X138930285Y-138807143D02*
X139016000Y-138921428D01*
X139016000Y-138921428D02*
X139101714Y-138978571D01*
X139101714Y-138978571D02*
X139273142Y-139035714D01*
X139273142Y-139035714D02*
X139787428Y-139035714D01*
X139787428Y-139035714D02*
X139958857Y-138978571D01*
X139958857Y-138978571D02*
X140044571Y-138921428D01*
X140044571Y-138921428D02*
X140130285Y-138807143D01*
X140130285Y-138807143D02*
X140130285Y-138578571D01*
X140130285Y-138578571D02*
X140044571Y-138464286D01*
X139016000Y-137435714D02*
X138930285Y-137550000D01*
X138930285Y-137550000D02*
X138930285Y-137778572D01*
X138930285Y-137778572D02*
X139016000Y-137892857D01*
X139016000Y-137892857D02*
X139187428Y-137950000D01*
X139187428Y-137950000D02*
X139873142Y-137950000D01*
X139873142Y-137950000D02*
X140044571Y-137892857D01*
X140044571Y-137892857D02*
X140130285Y-137778572D01*
X140130285Y-137778572D02*
X140130285Y-137550000D01*
X140130285Y-137550000D02*
X140044571Y-137435714D01*
X140044571Y-137435714D02*
X139873142Y-137378572D01*
X139873142Y-137378572D02*
X139701714Y-137378572D01*
X139701714Y-137378572D02*
X139530285Y-137950000D01*
X140730285Y-136978572D02*
X140730285Y-136235715D01*
X140730285Y-136235715D02*
X140044571Y-136635715D01*
X140044571Y-136635715D02*
X140044571Y-136464286D01*
X140044571Y-136464286D02*
X139958857Y-136350001D01*
X139958857Y-136350001D02*
X139873142Y-136292858D01*
X139873142Y-136292858D02*
X139701714Y-136235715D01*
X139701714Y-136235715D02*
X139273142Y-136235715D01*
X139273142Y-136235715D02*
X139101714Y-136292858D01*
X139101714Y-136292858D02*
X139016000Y-136350001D01*
X139016000Y-136350001D02*
X138930285Y-136464286D01*
X138930285Y-136464286D02*
X138930285Y-136807143D01*
X138930285Y-136807143D02*
X139016000Y-136921429D01*
X139016000Y-136921429D02*
X139101714Y-136978572D01*
X135244571Y-149057142D02*
X135330285Y-149114285D01*
X135330285Y-149114285D02*
X135587428Y-149228571D01*
X135587428Y-149228571D02*
X135758857Y-149285714D01*
X135758857Y-149285714D02*
X136016000Y-149342856D01*
X136016000Y-149342856D02*
X136444571Y-149399999D01*
X136444571Y-149399999D02*
X136787428Y-149399999D01*
X136787428Y-149399999D02*
X137216000Y-149342856D01*
X137216000Y-149342856D02*
X137473142Y-149285714D01*
X137473142Y-149285714D02*
X137644571Y-149228571D01*
X137644571Y-149228571D02*
X137901714Y-149114285D01*
X137901714Y-149114285D02*
X137987428Y-149057142D01*
X136016000Y-148085714D02*
X135930285Y-148199999D01*
X135930285Y-148199999D02*
X135930285Y-148428571D01*
X135930285Y-148428571D02*
X136016000Y-148542856D01*
X136016000Y-148542856D02*
X136101714Y-148599999D01*
X136101714Y-148599999D02*
X136273142Y-148657142D01*
X136273142Y-148657142D02*
X136787428Y-148657142D01*
X136787428Y-148657142D02*
X136958857Y-148599999D01*
X136958857Y-148599999D02*
X137044571Y-148542856D01*
X137044571Y-148542856D02*
X137130285Y-148428571D01*
X137130285Y-148428571D02*
X137130285Y-148199999D01*
X137130285Y-148199999D02*
X137044571Y-148085714D01*
X135244571Y-147685714D02*
X135330285Y-147628571D01*
X135330285Y-147628571D02*
X135587428Y-147514285D01*
X135587428Y-147514285D02*
X135758857Y-147457143D01*
X135758857Y-147457143D02*
X136016000Y-147400000D01*
X136016000Y-147400000D02*
X136444571Y-147342857D01*
X136444571Y-147342857D02*
X136787428Y-147342857D01*
X136787428Y-147342857D02*
X137216000Y-147400000D01*
X137216000Y-147400000D02*
X137473142Y-147457143D01*
X137473142Y-147457143D02*
X137644571Y-147514285D01*
X137644571Y-147514285D02*
X137901714Y-147628571D01*
X137901714Y-147628571D02*
X137987428Y-147685714D01*
X136873142Y-145457142D02*
X136873142Y-145857142D01*
X135930285Y-145857142D02*
X137730285Y-145857142D01*
X137730285Y-145857142D02*
X137730285Y-145285714D01*
X136101714Y-144828571D02*
X136016000Y-144771428D01*
X136016000Y-144771428D02*
X135930285Y-144828571D01*
X135930285Y-144828571D02*
X136016000Y-144885714D01*
X136016000Y-144885714D02*
X136101714Y-144828571D01*
X136101714Y-144828571D02*
X135930285Y-144828571D01*
X137730285Y-144428571D02*
X137730285Y-143742857D01*
X135930285Y-144085714D02*
X137730285Y-144085714D01*
X135930285Y-143342856D02*
X137730285Y-143342856D01*
X135930285Y-142828571D02*
X136873142Y-142828571D01*
X136873142Y-142828571D02*
X137044571Y-142885713D01*
X137044571Y-142885713D02*
X137130285Y-142999999D01*
X137130285Y-142999999D02*
X137130285Y-143171428D01*
X137130285Y-143171428D02*
X137044571Y-143285713D01*
X137044571Y-143285713D02*
X136958857Y-143342856D01*
X135930285Y-141742857D02*
X136873142Y-141742857D01*
X136873142Y-141742857D02*
X137044571Y-141799999D01*
X137044571Y-141799999D02*
X137130285Y-141914285D01*
X137130285Y-141914285D02*
X137130285Y-142142857D01*
X137130285Y-142142857D02*
X137044571Y-142257142D01*
X136016000Y-141742857D02*
X135930285Y-141857142D01*
X135930285Y-141857142D02*
X135930285Y-142142857D01*
X135930285Y-142142857D02*
X136016000Y-142257142D01*
X136016000Y-142257142D02*
X136187428Y-142314285D01*
X136187428Y-142314285D02*
X136358857Y-142314285D01*
X136358857Y-142314285D02*
X136530285Y-142257142D01*
X136530285Y-142257142D02*
X136616000Y-142142857D01*
X136616000Y-142142857D02*
X136616000Y-141857142D01*
X136616000Y-141857142D02*
X136701714Y-141742857D01*
X135930285Y-141171428D02*
X137130285Y-141171428D01*
X137730285Y-141171428D02*
X137644571Y-141228571D01*
X137644571Y-141228571D02*
X137558857Y-141171428D01*
X137558857Y-141171428D02*
X137644571Y-141114285D01*
X137644571Y-141114285D02*
X137730285Y-141171428D01*
X137730285Y-141171428D02*
X137558857Y-141171428D01*
X137130285Y-140599999D02*
X135930285Y-140599999D01*
X136958857Y-140599999D02*
X137044571Y-140542856D01*
X137044571Y-140542856D02*
X137130285Y-140428571D01*
X137130285Y-140428571D02*
X137130285Y-140257142D01*
X137130285Y-140257142D02*
X137044571Y-140142856D01*
X137044571Y-140142856D02*
X136873142Y-140085714D01*
X136873142Y-140085714D02*
X135930285Y-140085714D01*
X137558857Y-138657142D02*
X137644571Y-138599999D01*
X137644571Y-138599999D02*
X137730285Y-138485714D01*
X137730285Y-138485714D02*
X137730285Y-138199999D01*
X137730285Y-138199999D02*
X137644571Y-138085714D01*
X137644571Y-138085714D02*
X137558857Y-138028571D01*
X137558857Y-138028571D02*
X137387428Y-137971428D01*
X137387428Y-137971428D02*
X137216000Y-137971428D01*
X137216000Y-137971428D02*
X136958857Y-138028571D01*
X136958857Y-138028571D02*
X135930285Y-138714285D01*
X135930285Y-138714285D02*
X135930285Y-137971428D01*
X137730285Y-137228571D02*
X137730285Y-137114285D01*
X137730285Y-137114285D02*
X137644571Y-136999999D01*
X137644571Y-136999999D02*
X137558857Y-136942857D01*
X137558857Y-136942857D02*
X137387428Y-136885714D01*
X137387428Y-136885714D02*
X137044571Y-136828571D01*
X137044571Y-136828571D02*
X136616000Y-136828571D01*
X136616000Y-136828571D02*
X136273142Y-136885714D01*
X136273142Y-136885714D02*
X136101714Y-136942857D01*
X136101714Y-136942857D02*
X136016000Y-136999999D01*
X136016000Y-136999999D02*
X135930285Y-137114285D01*
X135930285Y-137114285D02*
X135930285Y-137228571D01*
X135930285Y-137228571D02*
X136016000Y-137342857D01*
X136016000Y-137342857D02*
X136101714Y-137399999D01*
X136101714Y-137399999D02*
X136273142Y-137457142D01*
X136273142Y-137457142D02*
X136616000Y-137514285D01*
X136616000Y-137514285D02*
X137044571Y-137514285D01*
X137044571Y-137514285D02*
X137387428Y-137457142D01*
X137387428Y-137457142D02*
X137558857Y-137399999D01*
X137558857Y-137399999D02*
X137644571Y-137342857D01*
X137644571Y-137342857D02*
X137730285Y-137228571D01*
X137558857Y-136371428D02*
X137644571Y-136314285D01*
X137644571Y-136314285D02*
X137730285Y-136200000D01*
X137730285Y-136200000D02*
X137730285Y-135914285D01*
X137730285Y-135914285D02*
X137644571Y-135800000D01*
X137644571Y-135800000D02*
X137558857Y-135742857D01*
X137558857Y-135742857D02*
X137387428Y-135685714D01*
X137387428Y-135685714D02*
X137216000Y-135685714D01*
X137216000Y-135685714D02*
X136958857Y-135742857D01*
X136958857Y-135742857D02*
X135930285Y-136428571D01*
X135930285Y-136428571D02*
X135930285Y-135685714D01*
X137730285Y-134600000D02*
X137730285Y-135171428D01*
X137730285Y-135171428D02*
X136873142Y-135228571D01*
X136873142Y-135228571D02*
X136958857Y-135171428D01*
X136958857Y-135171428D02*
X137044571Y-135057143D01*
X137044571Y-135057143D02*
X137044571Y-134771428D01*
X137044571Y-134771428D02*
X136958857Y-134657143D01*
X136958857Y-134657143D02*
X136873142Y-134600000D01*
X136873142Y-134600000D02*
X136701714Y-134542857D01*
X136701714Y-134542857D02*
X136273142Y-134542857D01*
X136273142Y-134542857D02*
X136101714Y-134600000D01*
X136101714Y-134600000D02*
X136016000Y-134657143D01*
X136016000Y-134657143D02*
X135930285Y-134771428D01*
X135930285Y-134771428D02*
X135930285Y-135057143D01*
X135930285Y-135057143D02*
X136016000Y-135171428D01*
X136016000Y-135171428D02*
X136101714Y-135228571D01*
D11*
G04 #@! TO.C,C1*
X133015000Y-144811252D02*
X133015000Y-144288748D01*
X134485000Y-144811252D02*
X134485000Y-144288748D01*
G04 #@! TD*
G36*
X128258059Y-126501061D02*
G01*
X128363223Y-126514906D01*
X128394491Y-126523284D01*
X128484918Y-126560740D01*
X128512951Y-126576925D01*
X128590601Y-126636508D01*
X128613491Y-126659398D01*
X128673074Y-126737048D01*
X128689259Y-126765081D01*
X128726715Y-126855508D01*
X128735093Y-126886775D01*
X128748939Y-126991939D01*
X128750000Y-127008125D01*
X128750000Y-142241874D01*
X128748939Y-142258060D01*
X128735093Y-142363224D01*
X128726715Y-142394491D01*
X128689259Y-142484918D01*
X128673074Y-142512951D01*
X128613491Y-142590601D01*
X128590601Y-142613491D01*
X128512951Y-142673074D01*
X128484918Y-142689259D01*
X128394491Y-142726715D01*
X128363224Y-142735093D01*
X128258060Y-142748939D01*
X128241874Y-142750000D01*
X124608126Y-142750000D01*
X124591940Y-142748939D01*
X124486775Y-142735093D01*
X124455508Y-142726715D01*
X124365081Y-142689259D01*
X124337048Y-142673074D01*
X124259398Y-142613491D01*
X124236508Y-142590601D01*
X124176925Y-142512951D01*
X124160740Y-142484918D01*
X124123284Y-142394491D01*
X124114906Y-142363223D01*
X124101061Y-142258059D01*
X124100000Y-142241874D01*
X124100000Y-127008125D01*
X124101061Y-126991940D01*
X124114906Y-126886776D01*
X124123284Y-126855508D01*
X124160740Y-126765081D01*
X124176925Y-126737048D01*
X124236508Y-126659398D01*
X124259398Y-126636508D01*
X124337048Y-126576925D01*
X124365081Y-126560740D01*
X124455508Y-126523284D01*
X124486776Y-126514906D01*
X124591941Y-126501061D01*
X124608126Y-126500000D01*
X128241874Y-126500000D01*
X128258059Y-126501061D01*
G37*
%LPC*%
D12*
G04 #@! TO.C,J6*
X137250000Y-132999000D03*
G04 #@! TD*
G04 #@! TO.C,J4*
X140750000Y-133000000D03*
G04 #@! TD*
G04 #@! TO.C,J17*
X124000000Y-145500000D03*
G04 #@! TD*
G04 #@! TO.C,J8*
X133750000Y-132999000D03*
G04 #@! TD*
G04 #@! TO.C,J7*
X135500000Y-133000000D03*
G04 #@! TD*
G04 #@! TO.C,J19*
X124000000Y-149500000D03*
G04 #@! TD*
D13*
G04 #@! TO.C,J1*
X122809000Y-127000000D03*
X122809000Y-128270000D03*
X122809000Y-129540000D03*
X122809000Y-130810000D03*
X122809000Y-132080000D03*
X122809000Y-142240000D03*
X130048000Y-130810000D03*
X130048000Y-129540000D03*
X130048000Y-128270000D03*
X130048000Y-127000000D03*
G04 #@! TD*
D12*
G04 #@! TO.C,J5*
X139000000Y-133000000D03*
G04 #@! TD*
G04 #@! TO.C,J18*
X124000000Y-147500000D03*
G04 #@! TD*
D14*
G04 #@! TO.C,C1*
X133750000Y-145587500D03*
X133750000Y-143512500D03*
G04 #@! TD*
%LPD*%
M02*
