G04 #@! TF.GenerationSoftware,KiCad,Pcbnew,7.0.11*
G04 #@! TF.CreationDate,2025-03-05T13:55:33+11:00*
G04 #@! TF.ProjectId,notestmode3,6e6f7465-7374-46d6-9f64-65332e6b6963,rev?*
G04 #@! TF.SameCoordinates,Original*
G04 #@! TF.FileFunction,Legend,Top*
G04 #@! TF.FilePolarity,Positive*
%FSLAX46Y46*%
G04 Gerber Fmt 4.6, Leading zero omitted, Abs format (unit mm)*
G04 Created by KiCad (PCBNEW 7.0.11) date 2025-03-05 13:55:33*
%MOMM*%
%LPD*%
G01*
G04 APERTURE LIST*
G04 Aperture macros list*
%AMRoundRect*
0 Rectangle with rounded corners*
0 $1 Rounding radius*
0 $2 $3 $4 $5 $6 $7 $8 $9 X,Y pos of 4 corners*
0 Add a 4 corners polygon primitive as box body*
4,1,4,$2,$3,$4,$5,$6,$7,$8,$9,$2,$3,0*
0 Add four circle primitives for the rounded corners*
1,1,$1+$1,$2,$3*
1,1,$1+$1,$4,$5*
1,1,$1+$1,$6,$7*
1,1,$1+$1,$8,$9*
0 Add four rect primitives between the rounded corners*
20,1,$1+$1,$2,$3,$4,$5,0*
20,1,$1+$1,$4,$5,$6,$7,0*
20,1,$1+$1,$6,$7,$8,$9,0*
20,1,$1+$1,$8,$9,$2,$3,0*%
G04 Aperture macros list end*
%ADD10C,0.150000*%
%ADD11C,0.119998*%
%ADD12C,0.100000*%
%ADD13RoundRect,0.300960X-0.451440X-0.451440X0.451440X-0.451440X0.451440X0.451440X-0.451440X0.451440X0*%
%ADD14RoundRect,0.317500X-0.723900X-0.317500X0.723900X-0.317500X0.723900X0.317500X-0.723900X0.317500X0*%
%ADD15RoundRect,0.313500X0.538900X-0.438900X0.538900X0.438900X-0.538900X0.438900X-0.538900X-0.438900X0*%
%ADD16RoundRect,0.152400X0.350000X0.962500X-0.350000X0.962500X-0.350000X-0.962500X0.350000X-0.962500X0*%
%ADD17RoundRect,0.152400X0.962500X0.350000X-0.962500X0.350000X-0.962500X-0.350000X0.962500X-0.350000X0*%
G04 APERTURE END LIST*
D10*
X122690476Y-143204819D02*
X122690476Y-143919104D01*
X122690476Y-143919104D02*
X122642857Y-144061961D01*
X122642857Y-144061961D02*
X122547619Y-144157200D01*
X122547619Y-144157200D02*
X122404762Y-144204819D01*
X122404762Y-144204819D02*
X122309524Y-144204819D01*
X123690476Y-144204819D02*
X123119048Y-144204819D01*
X123404762Y-144204819D02*
X123404762Y-143204819D01*
X123404762Y-143204819D02*
X123309524Y-143347676D01*
X123309524Y-143347676D02*
X123214286Y-143442914D01*
X123214286Y-143442914D02*
X123119048Y-143490533D01*
X124023810Y-143204819D02*
X124690476Y-143204819D01*
X124690476Y-143204819D02*
X124261905Y-144204819D01*
X132295180Y-131916666D02*
X131580895Y-131916666D01*
X131580895Y-131916666D02*
X131438038Y-131869047D01*
X131438038Y-131869047D02*
X131342800Y-131773809D01*
X131342800Y-131773809D02*
X131295180Y-131630952D01*
X131295180Y-131630952D02*
X131295180Y-131535714D01*
X131866609Y-132535714D02*
X131914228Y-132440476D01*
X131914228Y-132440476D02*
X131961847Y-132392857D01*
X131961847Y-132392857D02*
X132057085Y-132345238D01*
X132057085Y-132345238D02*
X132104704Y-132345238D01*
X132104704Y-132345238D02*
X132199942Y-132392857D01*
X132199942Y-132392857D02*
X132247561Y-132440476D01*
X132247561Y-132440476D02*
X132295180Y-132535714D01*
X132295180Y-132535714D02*
X132295180Y-132726190D01*
X132295180Y-132726190D02*
X132247561Y-132821428D01*
X132247561Y-132821428D02*
X132199942Y-132869047D01*
X132199942Y-132869047D02*
X132104704Y-132916666D01*
X132104704Y-132916666D02*
X132057085Y-132916666D01*
X132057085Y-132916666D02*
X131961847Y-132869047D01*
X131961847Y-132869047D02*
X131914228Y-132821428D01*
X131914228Y-132821428D02*
X131866609Y-132726190D01*
X131866609Y-132726190D02*
X131866609Y-132535714D01*
X131866609Y-132535714D02*
X131818990Y-132440476D01*
X131818990Y-132440476D02*
X131771371Y-132392857D01*
X131771371Y-132392857D02*
X131676133Y-132345238D01*
X131676133Y-132345238D02*
X131485657Y-132345238D01*
X131485657Y-132345238D02*
X131390419Y-132392857D01*
X131390419Y-132392857D02*
X131342800Y-132440476D01*
X131342800Y-132440476D02*
X131295180Y-132535714D01*
X131295180Y-132535714D02*
X131295180Y-132726190D01*
X131295180Y-132726190D02*
X131342800Y-132821428D01*
X131342800Y-132821428D02*
X131390419Y-132869047D01*
X131390419Y-132869047D02*
X131485657Y-132916666D01*
X131485657Y-132916666D02*
X131676133Y-132916666D01*
X131676133Y-132916666D02*
X131771371Y-132869047D01*
X131771371Y-132869047D02*
X131818990Y-132821428D01*
X131818990Y-132821428D02*
X131866609Y-132726190D01*
D11*
G04 #@! TO.C,R1*
X123265000Y-136977064D02*
X123265000Y-136522936D01*
X124735000Y-136977064D02*
X124735000Y-136522936D01*
G04 #@! TO.C,R2*
X124515000Y-131977064D02*
X124515000Y-131522936D01*
X125985000Y-131977064D02*
X125985000Y-131522936D01*
G04 #@! TO.C,R3*
X126765000Y-131977064D02*
X126765000Y-131522936D01*
X128235000Y-131977064D02*
X128235000Y-131522936D01*
G04 #@! TO.C,U2*
X140975000Y-148975000D02*
X140975000Y-134025000D01*
X140975000Y-134025000D02*
X125025000Y-134025000D01*
X139975000Y-149975000D02*
X140975000Y-148975000D01*
D12*
X138165000Y-146015000D02*
X138165000Y-145515000D01*
X138165000Y-136835000D02*
X138165000Y-138485000D01*
X137015000Y-147165000D02*
X138165000Y-146015000D01*
X136515000Y-147165000D02*
X137015000Y-147165000D01*
X136515000Y-136835000D02*
X138165000Y-136835000D01*
D11*
X134000000Y-149975000D02*
X139975000Y-149975000D01*
D12*
X129485000Y-147165000D02*
X127835000Y-147165000D01*
X129485000Y-136835000D02*
X127835000Y-136835000D01*
X127835000Y-147165000D02*
X127835000Y-145515000D01*
X127835000Y-136835000D02*
X127835000Y-138485000D01*
D11*
X125025000Y-149975000D02*
X132000000Y-149975000D01*
X125025000Y-134025000D02*
X125025000Y-149975000D01*
G04 #@! TD*
%LPC*%
D13*
G04 #@! TO.C,J6*
X137250000Y-132999000D03*
G04 #@! TD*
G04 #@! TO.C,J4*
X140750000Y-133000000D03*
G04 #@! TD*
G04 #@! TO.C,J17*
X124000000Y-145500000D03*
G04 #@! TD*
G04 #@! TO.C,J8*
X133750000Y-132999000D03*
G04 #@! TD*
G04 #@! TO.C,J7*
X135500000Y-133000000D03*
G04 #@! TD*
G04 #@! TO.C,J19*
X124000000Y-149500000D03*
G04 #@! TD*
D14*
G04 #@! TO.C,J1*
X122809000Y-127000000D03*
X122809000Y-128270000D03*
X122809000Y-129540000D03*
X122809000Y-130810000D03*
X122809000Y-132080000D03*
X122809000Y-142240000D03*
X130048000Y-130810000D03*
X130048000Y-129540000D03*
X130048000Y-128270000D03*
X130048000Y-127000000D03*
G04 #@! TD*
D13*
G04 #@! TO.C,J5*
X139000000Y-133000000D03*
G04 #@! TD*
D15*
G04 #@! TO.C,R1*
X124000000Y-137750000D03*
X124000000Y-135750000D03*
G04 #@! TD*
G04 #@! TO.C,R2*
X125250000Y-132750000D03*
X125250000Y-130750000D03*
G04 #@! TD*
D13*
G04 #@! TO.C,J18*
X124000000Y-147500000D03*
G04 #@! TD*
D15*
G04 #@! TO.C,R3*
X127500000Y-132750000D03*
X127500000Y-130750000D03*
G04 #@! TD*
D16*
G04 #@! TO.C,U2*
X133000000Y-146052500D03*
X134270000Y-146052500D03*
X135540000Y-146052500D03*
D17*
X137052500Y-144540000D03*
X137052500Y-143270000D03*
X137052500Y-142000000D03*
X137052500Y-140730000D03*
X137052500Y-139460000D03*
D16*
X135540000Y-137947500D03*
X134270000Y-137947500D03*
X133000000Y-137947500D03*
X131730000Y-137947500D03*
X130460000Y-137947500D03*
D17*
X128947500Y-139460000D03*
X128947500Y-140730000D03*
X128947500Y-142000000D03*
X128947500Y-143270000D03*
X128947500Y-144540000D03*
D16*
X130460000Y-146052500D03*
X131730000Y-146052500D03*
G04 #@! TD*
%LPD*%
M02*
