M48
; DRILL file {KiCad 7.0.11} date Wed Mar  5 13:55:36 2025
; FORMAT={-:-/ absolute / inch / decimal}
; #@! TF.CreationDate,2025-03-05T13:55:36+11:00
; #@! TF.GenerationSoftware,Kicad,Pcbnew,7.0.11
; #@! TF.FileFunction,MixedPlating,1,2
FMAT,2
INCH
; #@! TA.AperFunction,Plated,PTH,ViaDrill
T1C0.0157
; #@! TA.AperFunction,Plated,PTH,ComponentDrill
T2C0.0276
; #@! TA.AperFunction,Plated,PTH,ComponentDrill
T3C0.0315
%
G90
G05
T1
X4.9409Y-5.5118
X4.9409Y-5.6102
X4.9606Y-5.0787
X5.0197Y-5.0098
X5.0197Y-5.4331
X5.0787Y-5.374
X5.1575Y-5.8366
X5.2165Y-5.2953
X5.2657Y-5.8366
X5.2756Y-5.3543
X5.3346Y-5.5406
X5.3346Y-5.6406
T2
X4.8819Y-5.7283
X4.8819Y-5.8071
X4.8819Y-5.8858
X5.2657Y-5.2362
X5.3346Y-5.2362
X5.4035Y-5.2362
X5.4724Y-5.2362
X5.5413Y-5.2362
T3
X4.835Y-5.0
X4.835Y-5.05
X4.835Y-5.1
X4.835Y-5.15
X4.835Y-5.2
X4.835Y-5.6
X5.12Y-5.0
X5.12Y-5.05
X5.12Y-5.1
X5.12Y-5.15
M30
